<?xml version="1.0" encoding="UTF-8"?>
<svg width="720px" height="720px" viewBox="0 0 720 720" version="1.1" xmlns="http://www.w3.org/2000/svg" xmlns:xlink="http://www.w3.org/1999/xlink">
    <!-- Generator: Sketch 63.1 (92452) - https://sketch.com -->
    <title>ap-logo</title>
    <desc>Created with Sketch.</desc>
    <g id="ap-logo" stroke="none" stroke-width="1" fill="none" fill-rule="evenodd">
        <path d="M570,0 C652.842712,-1.52179594e-14 720,67.1572875 720,150 C720,232.842712 652.842712,300 570,300 L510,300 L510,420 L570,420 C652.842712,420 720,487.157288 720,570 C720,652.842712 652.842712,720 570,720 C487.157288,720 420,652.842712 420,570 L420,510 L300,510 L300,570 C300,652.842712 232.842712,720 150,720 C67.1572875,720 1.01453063e-14,652.842712 0,570 C-1.01453063e-14,487.157288 67.1572875,420 150,420 L210,420 L210,300 L150,300 C67.1572875,300 1.01453063e-14,232.842712 0,150 C-1.01453063e-14,67.1572875 67.1572875,1.52179594e-14 150,0 C232.842712,-1.52179594e-14 300,67.1572875 300,150 L300,210 L420,210 L420,150 C420,67.1572875 487.157288,1.52179594e-14 570,0 Z M570,510 C536.862915,510 510,536.862915 510,570 C510,603.137085 536.862915,630 570,630 C603.137085,630 630,603.137085 630,570 C630,536.862915 603.137085,510 570,510 Z M150,510 C116.862915,510 90,536.862915 90,570 C90,603.137085 116.862915,630 150,630 C183.137085,630 210,603.137085 210,570 C210,536.862915 183.137085,510 150,510 Z M420,300 L300,300 L300,420 L420,420 L420,300 Z" id="Combined-Shape" fill="#423A3A"></path>
        <path d="M420,420 L420,150 C420,67.1572875 487.157288,1.52179594e-14 570,0 C652.842712,-1.52179594e-14 720,67.1572875 720,150 C720,232.842712 652.842712,300 570,300 L510,300 L510,300 L510,420 L420,420 Z" id="letter-P" stroke="#979797" fill="#4690F0"></path>
        <path d="M300,300 L150,300 C67.1572875,300 1.01453063e-14,232.842712 0,150 C-1.01453063e-14,67.1572875 67.1572875,1.52179594e-14 150,0 C232.842712,-1.52179594e-14 300,67.1572875 300,150 L300,300 L300,300 Z" id="letter-A" fill="#DC4B41"></path>
        <circle id="Oval" fill="#7F2D2A" cx="150" cy="150" r="60"></circle>
        <circle id="Oval" fill="#2C5891" cx="570" cy="150" r="60"></circle>
        <path d="M570,0.5 C528.716715,0.5 491.341715,17.2333575 464.287536,44.2875362 C437.233357,71.341715 420.5,108.716715 420.5,150 L420.5,210.5 L299.5,210.5 L299.5,150 C299.5,108.716715 282.766643,71.341715 255.712464,44.2875362 C228.658285,17.2333575 191.283285,0.5 150,0.5 C108.716715,0.5 71.341715,17.2333575 44.2875362,44.2875362 C17.2333575,71.341715 0.5,108.716715 0.5,150 C0.5,191.283285 17.2333575,228.658285 44.2875362,255.712464 C71.341715,282.766643 108.716715,299.5 150,299.5 L210.5,299.5 L210.5,420.5 L150,420.5 C108.716715,420.5 71.341715,437.233357 44.2875362,464.287536 C17.2333575,491.341715 0.5,528.716715 0.5,570 C0.5,611.283285 17.2333575,648.658285 44.2875362,675.712464 C71.341715,702.766643 108.716715,719.5 150,719.5 C191.283285,719.5 228.658285,702.766643 255.712464,675.712464 C282.766643,648.658285 299.5,611.283285 299.5,570 L299.5,509.5 L420.5,509.5 L420.5,570 C420.5,611.283285 437.233357,648.658285 464.287536,675.712464 C491.341715,702.766643 528.716715,719.5 570,719.5 C611.283285,719.5 648.658285,702.766643 675.712464,675.712464 C702.766643,648.658285 719.5,611.283285 719.5,570 C719.5,528.716715 702.766643,491.341715 675.712464,464.287536 C648.658285,437.233357 611.283285,420.5 570,420.5 L509.5,420.5 L509.5,299.5 L570,299.5 C611.283285,299.5 648.658285,282.766643 675.712464,255.712464 C702.766643,228.658285 719.5,191.283285 719.5,150 C719.5,108.716715 702.766643,71.341715 675.712464,44.2875362 C648.658285,17.2333575 611.283285,0.5 570,0.5 Z" id="Path" stroke="#B1B1B1"></path>
    </g>
</svg>